<svg width="1230" height="52" fill="none" xmlns="http://www.w3.org/2000/svg"><g clip-path="url(#clip0_1424_79)"><g clip-path="url(#clip1_1424_79)"><path fill-rule="evenodd" clip-rule="evenodd" d="M823.166 10.87a2.5 2.5 0 00-2.5 2.5v25.26a2.5 2.5 0 002.5 2.5h11.667a2.5 2.5 0 002.5-2.5V13.37a2.5 2.5 0 00-2.5-2.5h-.139l-.406.974a1.667 1.667 0 01-1.538 1.025h-7.5c-.673 0-1.28-.404-1.539-1.025l-.406-.974h-.139zm-5.833 2.5a5.833 5.833 0 015.833-5.834h11.667a5.833 5.833 0 015.833 5.834v25.26a5.833 5.833 0 01-5.833 5.833h-11.667a5.833 5.833 0 01-5.833-5.833V13.37z" fill="#FF5A30"/><g clip-path="url(#clip2_1424_79)"><path d="M866.544 18.196c-1.577 0-2.781-.439-3.612-1.316-.821-.877-1.232-2.123-1.232-3.738 0-.803.126-1.517.378-2.142a4.539 4.539 0 011.036-1.596c.439-.439.961-.77 1.568-.994a5.659 5.659 0 011.974-.336c.411 0 .784.033 1.12.098.336.056.63.126.882.21a3.947 3.947 0 01.994.434l-.63 1.764a5.259 5.259 0 00-1.05-.406 4.9 4.9 0 00-1.344-.168c-.336 0-.667.056-.994.168a2.267 2.267 0 00-.854.546 2.66 2.66 0 00-.588.952c-.149.392-.224.868-.224 1.428 0 .448.047.868.14 1.26.103.383.261.714.476.994.224.28.513.504.868.672.355.159.784.238 1.288.238.317 0 .602-.019.854-.056.252-.037.476-.08.672-.126.196-.056.369-.117.518-.182.149-.065.285-.126.406-.182l.602 1.75c-.308.187-.742.355-1.302.504-.56.15-1.209.224-1.946.224zm7.465-1.652c.205 0 .401-.005.588-.014.187-.01.336-.023.448-.042v-1.582a3.851 3.851 0 00-.378-.056 4.201 4.201 0 00-.462-.028c-.196 0-.383.014-.56.042-.168.019-.317.06-.448.126a.78.78 0 00-.308.266.739.739 0 00-.112.42c0 .327.107.555.322.686.224.121.527.182.91.182zm-.168-6.104c.616 0 1.129.07 1.54.21.411.14.737.34.98.602.252.261.429.579.532.952.103.373.154.789.154 1.246v4.34c-.299.065-.714.14-1.246.224-.532.093-1.176.14-1.932.14-.476 0-.91-.042-1.302-.126a2.888 2.888 0 01-.994-.406 1.94 1.94 0 01-.644-.756c-.149-.308-.224-.686-.224-1.134 0-.43.084-.793.252-1.092.177-.299.411-.537.7-.714.289-.177.621-.303.994-.378a5.278 5.278 0 011.162-.126c.271 0 .509.014.714.042.215.019.387.047.518.084v-.196c0-.355-.107-.64-.322-.854-.215-.215-.588-.322-1.12-.322-.355 0-.705.028-1.05.084a4.234 4.234 0 00-.896.21l-.266-1.68c.121-.037.271-.075.448-.112.187-.047.387-.084.602-.112a7.61 7.61 0 01.672-.084c.243-.028.485-.042.728-.042zm8.032 7.7c-.607-.01-1.101-.075-1.484-.196-.373-.121-.672-.29-.896-.504a1.826 1.826 0 01-.448-.798 4.635 4.635 0 01-.112-1.064V7.472l2.086-.336v8.022c0 .187.014.355.042.504.028.15.079.275.154.378a.918.918 0 00.35.252c.149.065.35.107.602.126l-.294 1.722zm4.43 0c-.607-.01-1.102-.075-1.484-.196-.374-.121-.672-.29-.896-.504a1.826 1.826 0 01-.448-.798 4.635 4.635 0 01-.112-1.064V7.472l2.086-.336v8.022c0 .187.014.355.042.504.028.15.079.275.154.378a.91.91 0 00.35.252c.149.065.35.107.602.126l-.294 1.722zm11.139-.392c-.355.103-.812.196-1.372.28-.56.093-1.148.14-1.764.14-.626 0-1.148-.084-1.568-.252a2.398 2.398 0 01-.98-.7 2.807 2.807 0 01-.518-1.092 5.818 5.818 0 01-.154-1.386v-4.102h2.086v3.85c0 .672.088 1.157.266 1.456.177.299.508.448.994.448.149 0 .308-.005.476-.014.168-.019.317-.037.448-.056v-5.684h2.086v7.112zm4.072-1.246c.383 0 .653-.037.812-.112.159-.075.238-.22.238-.434 0-.168-.103-.313-.308-.434-.205-.13-.518-.275-.938-.434a10.352 10.352 0 01-.896-.378 2.772 2.772 0 01-.672-.462 1.972 1.972 0 01-.434-.658 2.404 2.404 0 01-.154-.91c0-.69.257-1.237.77-1.638.513-.401 1.218-.602 2.114-.602.448 0 .877.042 1.288.126.411.075.737.159.98.252l-.364 1.624a7.52 7.52 0 00-.798-.224 4.205 4.205 0 00-.952-.098c-.653 0-.98.182-.98.546 0 .084.014.159.042.224.028.065.084.13.168.196.084.056.196.121.336.196.149.065.336.14.56.224a7.95 7.95 0 011.134.504c.299.159.532.336.7.532.177.187.299.397.364.63.075.233.112.504.112.812 0 .728-.275 1.279-.826 1.652-.541.373-1.311.56-2.31.56-.653 0-1.199-.056-1.638-.168-.429-.112-.728-.205-.896-.28l.35-1.694c.355.14.719.252 1.092.336.373.075.742.112 1.106.112z" fill="#424551"/><path d="M864.078 37.618c0 1.536.222 2.958.666 4.266a12.434 12.434 0 001.962 3.636l-1.188.81c-.936-1.14-1.692-2.448-2.268-3.924-.564-1.488-.846-3.084-.846-4.788 0-1.704.282-3.294.846-4.77.576-1.488 1.332-2.802 2.268-3.942l1.188.81a12.434 12.434 0 00-1.962 3.636c-.444 1.308-.666 2.73-.666 4.266zm3.478 1.062c.228-.528.54-1.14.936-1.836.396-.708.84-1.434 1.332-2.178a39.344 39.344 0 011.602-2.196 23.567 23.567 0 011.728-1.944h1.602v7.92h1.476v1.368h-1.476V43h-1.62v-3.186h-5.58V38.68zm5.58-6.174c-.36.384-.726.816-1.098 1.296-.36.468-.714.96-1.062 1.476a26.9 26.9 0 00-.99 1.584c-.3.54-.57 1.068-.81 1.584h3.96v-5.94zm4.76 4.248c0-2.088.366-3.696 1.098-4.824.744-1.128 1.77-1.692 3.078-1.692 1.308 0 2.328.564 3.06 1.692.744 1.128 1.116 2.736 1.116 4.824 0 2.088-.372 3.696-1.116 4.824-.732 1.128-1.752 1.692-3.06 1.692s-2.334-.564-3.078-1.692c-.732-1.128-1.098-2.736-1.098-4.824zm6.588 0c0-.684-.042-1.332-.126-1.944a5.908 5.908 0 00-.396-1.602c-.18-.456-.426-.816-.738-1.08-.312-.276-.696-.414-1.152-.414-.456 0-.84.138-1.152.414-.312.264-.564.624-.756 1.08a6.95 6.95 0 00-.396 1.602c-.072.612-.108 1.26-.108 1.944 0 .684.036 1.332.108 1.944a6.95 6.95 0 00.396 1.602c.192.456.444.822.756 1.098.312.264.696.396 1.152.396.456 0 .84-.132 1.152-.396.312-.276.558-.642.738-1.098.192-.456.324-.99.396-1.602.084-.612.126-1.26.126-1.944zm6.254-1.422c1.812.072 3.138.468 3.978 1.188.852.72 1.278 1.698 1.278 2.934 0 .552-.096 1.062-.288 1.53-.18.468-.462.87-.846 1.206-.372.336-.846.6-1.422.792-.576.192-1.26.288-2.052.288-.312 0-.63-.024-.954-.072a8.519 8.519 0 01-.9-.18 11.66 11.66 0 01-.738-.216 3.925 3.925 0 01-.468-.18l.324-1.458c.204.096.534.222.99.378.468.156 1.038.234 1.71.234.54 0 .99-.06 1.35-.18.372-.12.672-.282.9-.486.228-.204.39-.438.486-.702a2.35 2.35 0 00.162-.864c0-.456-.078-.858-.234-1.206-.156-.36-.432-.66-.828-.9-.396-.24-.924-.42-1.584-.54-.66-.132-1.494-.198-2.502-.198.072-.588.126-1.14.162-1.656.048-.516.09-1.02.126-1.512.036-.492.066-.978.09-1.458.024-.492.048-1.008.072-1.548h6.012v1.422h-4.554c-.012.18-.03.426-.054.738-.024.3-.048.618-.072.954l-.072.954a14.05 14.05 0 01-.072.738zm9.332 2.286c0-1.536-.222-2.958-.666-4.266a12.434 12.434 0 00-1.962-3.636l1.188-.81c.936 1.14 1.686 2.454 2.25 3.942.576 1.476.864 3.066.864 4.77 0 1.704-.288 3.3-.864 4.788-.564 1.476-1.314 2.784-2.25 3.924l-1.188-.81a12.434 12.434 0 001.962-3.636c.444-1.308.666-2.73.666-4.266zm10.83-2.286c1.812.072 3.138.468 3.978 1.188.852.72 1.278 1.698 1.278 2.934 0 .552-.096 1.062-.288 1.53-.18.468-.462.87-.846 1.206-.372.336-.846.6-1.422.792-.576.192-1.26.288-2.052.288-.312 0-.63-.024-.954-.072a8.519 8.519 0 01-.9-.18 11.66 11.66 0 01-.738-.216 3.925 3.925 0 01-.468-.18l.324-1.458c.204.096.534.222.99.378.468.156 1.038.234 1.71.234.54 0 .99-.06 1.35-.18.372-.12.672-.282.9-.486.228-.204.39-.438.486-.702a2.35 2.35 0 00.162-.864c0-.456-.078-.858-.234-1.206-.156-.36-.432-.66-.828-.9-.396-.24-.924-.42-1.584-.54-.66-.132-1.494-.198-2.502-.198.072-.588.126-1.14.162-1.656.048-.516.09-1.02.126-1.512.036-.492.066-.978.09-1.458.024-.492.048-1.008.072-1.548h6.012v1.422h-4.554c-.012.18-.03.426-.054.738-.024.3-.048.618-.072.954l-.072.954a14.05 14.05 0 01-.072.738zm10.161 0c1.812.072 3.138.468 3.978 1.188.852.72 1.278 1.698 1.278 2.934 0 .552-.096 1.062-.288 1.53-.18.468-.462.87-.846 1.206-.372.336-.846.6-1.422.792-.576.192-1.26.288-2.052.288-.312 0-.63-.024-.954-.072a8.519 8.519 0 01-.9-.18 11.66 11.66 0 01-.738-.216 3.925 3.925 0 01-.468-.18l.324-1.458c.204.096.534.222.99.378.468.156 1.038.234 1.71.234.54 0 .99-.06 1.35-.18.372-.12.672-.282.9-.486.228-.204.39-.438.486-.702a2.35 2.35 0 00.162-.864c0-.456-.078-.858-.234-1.206-.156-.36-.432-.66-.828-.9-.396-.24-.924-.42-1.584-.54-.66-.132-1.494-.198-2.502-.198.072-.588.126-1.14.162-1.656.048-.516.09-1.02.126-1.512.036-.492.066-.978.09-1.458.024-.492.048-1.008.072-1.548h6.012v1.422h-4.554c-.012.18-.03.426-.054.738-.024.3-.048.618-.072.954l-.072.954a14.05 14.05 0 01-.072.738zm10.16 0c1.812.072 3.138.468 3.978 1.188.852.72 1.278 1.698 1.278 2.934 0 .552-.096 1.062-.288 1.53-.18.468-.462.87-.846 1.206-.372.336-.846.6-1.422.792-.576.192-1.26.288-2.052.288-.312 0-.63-.024-.954-.072a8.519 8.519 0 01-.9-.18 11.66 11.66 0 01-.738-.216 3.925 3.925 0 01-.468-.18l.324-1.458c.204.096.534.222.99.378.468.156 1.038.234 1.71.234.54 0 .99-.06 1.35-.18.372-.12.672-.282.9-.486.228-.204.39-.438.486-.702a2.35 2.35 0 00.162-.864c0-.456-.078-.858-.234-1.206-.156-.36-.432-.66-.828-.9-.396-.24-.924-.42-1.584-.54-.66-.132-1.494-.198-2.502-.198.072-.588.126-1.14.162-1.656.048-.516.09-1.02.126-1.512.036-.492.066-.978.09-1.458.024-.492.048-1.008.072-1.548h6.012v1.422h-4.554c-.012.18-.03.426-.054.738-.024.3-.048.618-.072.954l-.072.954a14.05 14.05 0 01-.072.738zm7.046 1.494h4.446v1.566h-4.446v-1.566zm5.811-.072c0-2.088.366-3.696 1.098-4.824.744-1.128 1.77-1.692 3.078-1.692 1.308 0 2.328.564 3.06 1.692.744 1.128 1.116 2.736 1.116 4.824 0 2.088-.372 3.696-1.116 4.824-.732 1.128-1.752 1.692-3.06 1.692s-2.334-.564-3.078-1.692c-.732-1.128-1.098-2.736-1.098-4.824zm6.588 0c0-.684-.042-1.332-.126-1.944a5.908 5.908 0 00-.396-1.602c-.18-.456-.426-.816-.738-1.08-.312-.276-.696-.414-1.152-.414-.456 0-.84.138-1.152.414-.312.264-.564.624-.756 1.08a6.95 6.95 0 00-.396 1.602c-.072.612-.108 1.26-.108 1.944 0 .684.036 1.332.108 1.944a6.95 6.95 0 00.396 1.602c.192.456.444.822.756 1.098.312.264.696.396 1.152.396.456 0 .84-.132 1.152-.396.312-.276.558-.642.738-1.098.192-.456.324-.99.396-1.602.084-.612.126-1.26.126-1.944zm4.346-3.654c.684-.264 1.35-.6 1.998-1.008a8.395 8.395 0 001.782-1.566h1.188V43h-1.674V32.848c-.144.132-.324.27-.54.414a6.067 6.067 0 01-.684.414c-.24.132-.498.258-.774.378-.264.12-.522.222-.774.306l-.522-1.26zm16.892.612c0 .432-.09.852-.27 1.26a6.036 6.036 0 01-.684 1.188c-.288.384-.612.768-.972 1.152-.36.372-.72.738-1.08 1.098l-.72.72a12.98 12.98 0 00-.756.864c-.24.3-.444.588-.612.864-.156.276-.234.516-.234.72h5.742V43h-7.56a1.312 1.312 0 01-.018-.216v-.198c0-.564.09-1.086.27-1.566.192-.492.438-.954.738-1.386.3-.432.636-.84 1.008-1.224s.738-.756 1.098-1.116c.3-.288.582-.57.846-.846a8.74 8.74 0 00.72-.846c.216-.288.384-.582.504-.882.132-.3.198-.618.198-.954 0-.36-.06-.666-.18-.918a1.726 1.726 0 00-.45-.63 1.702 1.702 0 00-.684-.36 2.546 2.546 0 00-.81-.126c-.348 0-.666.048-.954.144a4.18 4.18 0 00-.774.342c-.228.12-.42.252-.576.396l-.36.306-.828-1.188c.108-.12.27-.264.486-.432.216-.18.474-.348.774-.504.3-.156.636-.288 1.008-.396a4.31 4.31 0 011.206-.162c1.308 0 2.286.306 2.934.918.66.6.99 1.452.99 2.556zm10.916 6.048c0 .504-.09.972-.27 1.404-.168.42-.426.792-.774 1.116-.336.312-.762.552-1.278.72-.516.18-1.11.27-1.782.27-.78 0-1.434-.108-1.962-.324-.516-.228-.93-.51-1.242-.846a3.004 3.004 0 01-.666-1.098 3.75 3.75 0 01-.198-1.152c0-.348.054-.678.162-.99.12-.324.27-.624.45-.9.192-.276.408-.522.648-.738.252-.228.516-.426.792-.594-1.176-.672-1.764-1.662-1.764-2.97 0-.456.09-.888.27-1.296.18-.42.432-.786.756-1.098a3.704 3.704 0 011.206-.738 4.09 4.09 0 011.566-.288c.672 0 1.248.102 1.728.306.48.204.87.468 1.17.792.312.312.534.66.666 1.044.144.384.216.756.216 1.116 0 .348-.054.678-.162.99-.096.3-.234.582-.414.846a3.35 3.35 0 01-.594.702 4.827 4.827 0 01-.684.54c1.416.672 2.136 1.734 2.16 3.186zm-6.48.108c0 .216.036.444.108.684.084.228.222.444.414.648.192.192.438.354.738.486s.678.198 1.134.198c.408 0 .762-.06 1.062-.18.312-.12.564-.27.756-.45.192-.192.336-.408.432-.648a1.97 1.97 0 00.144-.738c0-.384-.072-.72-.216-1.008a2.215 2.215 0 00-.63-.756 3.415 3.415 0 00-.972-.54 7.664 7.664 0 00-1.278-.396c-.54.3-.96.672-1.26 1.116-.288.444-.432.972-.432 1.584zm4.5-6.39c0-.18-.042-.378-.126-.594a1.614 1.614 0 00-.36-.594 1.878 1.878 0 00-.648-.468c-.264-.132-.588-.198-.972-.198s-.714.06-.99.18c-.264.12-.48.276-.648.468-.168.18-.294.384-.378.612a2.039 2.039 0 00-.108.648 2.264 2.264 0 00.594 1.53c.204.228.468.432.792.612.336.18.732.324 1.188.432.504-.3.906-.648 1.206-1.044.3-.408.45-.936.45-1.584z" fill="#1E212C"/></g></g><g clip-path="url(#clip3_1424_79)"><path fill-rule="evenodd" clip-rule="evenodd" d="M1056.54 23.611a13.03 13.03 0 01-1.63 4.645c.06.356.09.716.09 1.077 0 1.255-.36 2.456-1.04 3.547-.33.544-.42 1.182-.45 1.604a9.66 9.66 0 00.01 1.52c.03.57.1 1.168.18 1.732-.65-.19-1.35-.38-2.02-.532-.56-.126-1.14-.234-1.65-.288-.46-.046-1.11-.082-1.7.107a13.49 13.49 0 01-4.16.643c-1.77 0-3.39-.313-4.81-.856a22.133 22.133 0 01-6.78-.729c2.63 3.04 6.97 4.919 11.59 4.919 1.8 0 3.53-.277 5.13-.786h.02c.04-.002.15-.004.36.018.34.035.77.112 1.26.224.99.222 2.1.551 2.96.825 1.84.583 3.61-1.018 3.29-2.878-.14-.801-.29-1.779-.35-2.625a7.234 7.234 0 01-.01-1.032c.01-.106.02-.173.03-.208.93-1.553 1.47-3.322 1.47-5.205 0-2.122-.66-4.06-1.79-5.722z" fill="#FF5A30"/><path fill-rule="evenodd" clip-rule="evenodd" d="M1029.33 15.497c-2.25 1.718-3.5 3.973-3.5 6.336 0 1.178.31 2.313.88 3.369.22.402.29.816.31 1.097.02.306.01.62-.02.915-.05.589-.18 1.256-.33 1.913a41.49 41.49 0 01-.64 2.359c.88-.32 1.85-.648 2.76-.914.73-.215 1.48-.402 2.14-.507.57-.09 1.4-.179 2.11.068 1.6.554 3.4.867 5.29.867 3.58 0 6.76-1.111 9.01-2.83 2.24-1.719 3.49-3.974 3.49-6.337 0-2.363-1.25-4.618-3.49-6.336-2.25-1.72-5.43-2.83-9.01-2.83s-6.75 1.11-9 2.83zm-2.03-2.648c2.88-2.202 6.79-3.516 11.03-3.516 4.25 0 8.15 1.314 11.03 3.516 2.88 2.203 4.81 5.364 4.81 8.984s-1.93 6.781-4.81 8.984c-2.88 2.202-6.78 3.516-11.03 3.516-2.24 0-4.37-.365-6.32-1.029 0 .005-.15-.01-.56.054-.46.073-1.05.217-1.73.414-1.34.392-2.85.946-4 1.392-1.99.775-4.01-1.136-3.34-3.171.35-1.079.77-2.442 1.04-3.619.14-.593.23-1.091.26-1.46.02-.129.02-.222.02-.285a10.26 10.26 0 01-1.2-4.796c0-3.62 1.92-6.781 4.8-8.984zm-3.61 13.689z" fill="#FF5A30"/><g clip-path="url(#clip4_1424_79)"><path d="M1080.32 8.298v1.862h-2.93V18h-2.18v-7.84h-2.93V8.298h8.04zm3.02 8.246c.21 0 .4-.005.59-.014.19-.01.33-.023.45-.042v-1.582a4.118 4.118 0 00-.38-.056 4.196 4.196 0 00-.46-.028c-.2 0-.39.014-.56.042-.17.019-.32.06-.45.126a.83.83 0 00-.31.266.78.78 0 00-.11.42c0 .327.11.555.32.686.22.121.53.182.91.182zm-.17-6.104c.62 0 1.13.07 1.54.21.41.14.74.34.98.602.25.261.43.579.53.952.11.373.16.789.16 1.246v4.34c-.3.065-.72.14-1.25.224-.53.093-1.17.14-1.93.14-.48 0-.91-.042-1.3-.126a2.96 2.96 0 01-1-.406 1.938 1.938 0 01-.64-.756c-.15-.308-.22-.686-.22-1.134 0-.43.08-.793.25-1.092.18-.299.41-.537.7-.714.29-.177.62-.303.99-.378.38-.084.76-.126 1.16-.126.28 0 .51.014.72.042a3 3 0 01.52.084v-.196c0-.355-.11-.64-.33-.854-.21-.215-.58-.322-1.12-.322-.35 0-.7.028-1.05.084-.34.047-.64.117-.89.21l-.27-1.68c.12-.037.27-.075.45-.112.19-.047.39-.084.6-.112.22-.037.44-.065.67-.084.25-.028.49-.042.73-.042zm8.04 7.7c-.61-.01-1.11-.075-1.49-.196-.37-.121-.67-.29-.89-.504-.22-.224-.37-.49-.45-.798a4.378 4.378 0 01-.11-1.064V7.472l2.08-.336v8.022c0 .187.02.355.04.504.03.15.08.275.16.378.08.103.2.187.35.252.15.065.35.107.6.126l-.29 1.722zm3.57-4.844c.21-.224.42-.457.63-.7.22-.243.44-.48.64-.714.21-.243.4-.471.58-.686.19-.215.34-.401.47-.56h2.48c-.49.57-.98 1.115-1.45 1.638a42.23 42.23 0 01-1.54 1.596c.28.252.57.555.86.91.3.345.59.705.87 1.078.28.373.54.747.77 1.12.24.373.43.714.59 1.022h-2.39c-.15-.243-.33-.509-.52-.798a17.12 17.12 0 00-.6-.882c-.22-.299-.45-.583-.69-.854-.23-.27-.47-.5-.7-.686V18h-2.09V7.472l2.09-.336v6.16zm9.32-4.494l2.08-.336v2.17h2.51v1.736h-2.51v2.59c0 .439.08.789.23 1.05.15.261.47.392.93.392.23 0 .46-.019.69-.056.24-.047.46-.107.66-.182l.29 1.624c-.25.103-.53.191-.84.266a4.84 4.84 0 01-1.13.112c-.57 0-1.04-.075-1.42-.224a2.282 2.282 0 01-.89-.644c-.23-.28-.39-.616-.48-1.008a6.526 6.526 0 01-.12-1.302V8.802zm12.9 5.502a4.8 4.8 0 01-.25 1.596c-.17.476-.41.887-.73 1.232-.32.336-.7.597-1.15.784-.44.187-.93.28-1.48.28-.54 0-1.04-.093-1.49-.28a3.436 3.436 0 01-1.13-.784 3.71 3.71 0 01-.74-1.232 4.556 4.556 0 01-.27-1.596c0-.579.09-1.106.27-1.582.19-.476.44-.882.75-1.218.33-.336.71-.597 1.15-.784.45-.187.94-.28 1.46-.28.53 0 1.02.093 1.45.28.45.187.84.448 1.15.784.32.336.57.742.74 1.218.18.476.27 1.003.27 1.582zm-2.13 0c0-.644-.13-1.148-.39-1.512-.25-.373-.62-.56-1.09-.56-.48 0-.85.187-1.11.56-.26.364-.39.868-.39 1.512s.13 1.157.39 1.54c.26.373.63.56 1.11.56.47 0 .84-.187 1.09-.56.26-.383.39-.896.39-1.54zm13.4 3.444c-.36.103-.82.196-1.38.28-.56.093-1.14.14-1.76.14-.63 0-1.15-.084-1.57-.252-.41-.168-.74-.401-.98-.7a2.975 2.975 0 01-.52-1.092c-.1-.42-.15-.882-.15-1.386v-4.102h2.09v3.85c0 .672.08 1.157.26 1.456.18.299.51.448 1 .448.15 0 .3-.005.47-.014.17-.019.32-.037.45-.056v-5.684h2.09v7.112zm4.07-1.246c.38 0 .65-.037.81-.112.16-.075.24-.22.24-.434 0-.168-.1-.313-.31-.434-.21-.13-.52-.275-.94-.434-.32-.121-.62-.247-.89-.378a2.71 2.71 0 01-.68-.462 2.025 2.025 0 01-.43-.658c-.1-.252-.15-.555-.15-.91 0-.69.25-1.237.77-1.638.51-.401 1.21-.602 2.11-.602.45 0 .88.042 1.29.126.41.075.74.159.98.252l-.37 1.624a7.1 7.1 0 00-.79-.224c-.28-.065-.6-.098-.96-.098-.65 0-.98.182-.98.546 0 .084.02.159.05.224.02.065.08.13.16.196.09.056.2.121.34.196.15.065.34.14.56.224.46.168.84.336 1.13.504.3.159.54.336.7.532.18.187.3.397.37.63.07.233.11.504.11.812 0 .728-.28 1.279-.83 1.652-.54.373-1.31.56-2.31.56-.65 0-1.2-.056-1.63-.168-.43-.112-.73-.205-.9-.28l.35-1.694c.35.14.72.252 1.09.336.38.075.74.112 1.11.112z" fill="#424551"/><path d="M1073.44 43V29.32l1.67-.288v4.788c.32-.12.65-.21.99-.27a5.47 5.47 0 011.07-.108c.74 0 1.36.108 1.85.324.49.204.88.498 1.17.882.3.372.51.822.63 1.35.12.528.18 1.11.18 1.746V43h-1.67v-4.896c0-.576-.05-1.068-.13-1.476-.07-.408-.2-.738-.38-.99a1.477 1.477 0 00-.72-.54c-.3-.12-.67-.18-1.11-.18-.18 0-.37.012-.56.036-.19.024-.38.054-.56.09-.17.024-.32.054-.47.09-.13.036-.23.066-.29.09V43h-1.67zm9.76-4.662c0-.828.12-1.548.36-2.16.24-.624.56-1.14.96-1.548.39-.408.85-.714 1.36-.918a4.32 4.32 0 011.59-.306c1.26 0 2.22.396 2.9 1.188.67.78 1 1.974 1 3.582v.288c0 .108 0 .21-.01.306h-6.41c.07.972.35 1.71.84 2.214.5.504 1.26.756 2.31.756.59 0 1.08-.048 1.47-.144.41-.108.72-.21.92-.306l.24 1.404c-.21.108-.57.222-1.08.342-.51.12-1.08.18-1.73.18-.82 0-1.53-.12-2.13-.36-.58-.252-1.07-.594-1.45-1.026a4.16 4.16 0 01-.87-1.53c-.18-.6-.27-1.254-.27-1.962zm6.43-.918c.01-.756-.18-1.374-.58-1.854-.38-.492-.92-.738-1.6-.738-.38 0-.73.078-1.03.234a2.33 2.33 0 00-.73.576c-.21.24-.37.516-.49.828-.11.312-.18.63-.22.954h4.65zm6.96 5.76c-1.04-.024-1.77-.246-2.2-.666-.43-.42-.65-1.074-.65-1.962V29.32l1.68-.288v11.25c0 .276.02.504.07.684.05.18.12.324.23.432.11.108.25.192.43.252.18.048.41.09.67.126l-.23 1.404zm4.92 0c-1.03-.024-1.77-.246-2.2-.666-.43-.42-.65-1.074-.65-1.962V29.32l1.68-.288v11.25c0 .276.02.504.07.684.05.18.13.324.23.432.11.108.26.192.44.252.18.048.4.09.66.126l-.23 1.404zm10.37-4.86c0 .744-.1 1.416-.32 2.016-.22.6-.52 1.116-.92 1.548a3.95 3.95 0 01-1.38 1.008c-.54.228-1.13.342-1.77.342a4.49 4.49 0 01-1.76-.342 4.259 4.259 0 01-1.41-1.008 4.836 4.836 0 01-.9-1.548c-.21-.6-.32-1.272-.32-2.016 0-.732.11-1.398.32-1.998.22-.612.52-1.134.9-1.566.4-.432.87-.762 1.41-.99.54-.24 1.13-.36 1.76-.36.64 0 1.23.12 1.77.36.54.228 1 .558 1.38.99.4.432.7.954.92 1.566.22.6.32 1.266.32 1.998zm-1.74 0c0-1.056-.24-1.89-.72-2.502-.47-.624-1.11-.936-1.93-.936-.81 0-1.46.312-1.94.936-.47.612-.7 1.446-.7 2.502 0 1.056.23 1.896.7 2.52.48.612 1.13.918 1.94.918.82 0 1.46-.306 1.93-.918.48-.624.72-1.464.72-2.52zm15.08 3.906c-.39 0-.7-.054-.96-.162a1.878 1.878 0 01-.63-.432c-.26.144-.58.27-.95.378-.37.096-.74.144-1.12.144-.57 0-1.1-.09-1.58-.27a3.37 3.37 0 01-1.22-.792c-.35-.36-.62-.798-.81-1.314-.2-.516-.29-1.116-.29-1.8 0-.576.09-1.116.27-1.62.18-.516.44-.96.79-1.332a3.77 3.77 0 011.3-.9c.51-.216 1.09-.324 1.74-.324a9.1 9.1 0 011.68.144c.51.096.91.192 1.18.288v5.508c0 .384.07.654.2.81.13.156.31.234.52.234.32 0 .59-.108.81-.324.24-.216.44-.498.58-.846.16-.348.27-.738.34-1.17.07-.444.11-.894.11-1.35 0-.756-.13-1.464-.4-2.124a5.199 5.199 0 00-1.13-1.764c-.49-.504-1.09-.9-1.8-1.188-.7-.288-1.48-.432-2.36-.432-.87 0-1.68.15-2.41.45-.73.288-1.36.708-1.89 1.26-.53.54-.94 1.206-1.24 1.998-.29.792-.43 1.692-.43 2.7 0 1.056.15 1.986.46 2.79.32.792.75 1.458 1.3 1.998.56.528 1.22.924 1.98 1.188.77.276 1.61.414 2.52.414.71 0 1.29-.042 1.75-.126.46-.084.76-.15.9-.198l.18 1.332c-.21.072-.58.15-1.12.234-.53.084-1.1.126-1.71.126-1.07 0-2.08-.156-3.02-.468a6.71 6.71 0 01-2.49-1.404c-.71-.624-1.27-1.422-1.69-2.394-.41-.984-.61-2.148-.61-3.492 0-1.296.2-2.43.61-3.402s.95-1.776 1.64-2.412a6.841 6.841 0 012.39-1.458 8.522 8.522 0 012.88-.486c.99 0 1.92.162 2.79.486a6.6 6.6 0 012.31 1.386c.66.6 1.18 1.332 1.56 2.196.39.852.58 1.818.58 2.898 0 .816-.1 1.536-.29 2.16-.18.624-.43 1.152-.74 1.584-.31.42-.68.738-1.11.954-.44.216-.89.324-1.37.324zm-3.6-1.458c.25 0 .5-.024.75-.072.27-.06.5-.144.71-.252a3.815 3.815 0 01-.08-.468c-.01-.156-.01-.306-.01-.45v-4.23a2.62 2.62 0 00-.42-.072c-.2-.024-.43-.036-.68-.036-.85 0-1.49.264-1.91.792-.42.528-.63 1.194-.63 1.998 0 .852.2 1.53.61 2.034.41.504.96.756 1.66.756zm13.79 2.448c-.76 0-1.42-.12-2-.36a4.182 4.182 0 01-1.44-1.008 4.286 4.286 0 01-.86-1.53 6.53 6.53 0 01-.29-1.98c0-.72.1-1.38.31-1.98.21-.6.51-1.116.9-1.548.38-.444.85-.786 1.4-1.026a4.528 4.528 0 011.87-.378c.42 0 .84.036 1.26.108.42.072.82.186 1.21.342l-.38 1.422c-.25-.12-.55-.216-.88-.288a4.85 4.85 0 00-1.05-.108c-.93 0-1.65.294-2.16.882-.49.588-.73 1.446-.73 2.574 0 .504.05.966.16 1.386.12.42.3.78.54 1.08.25.3.57.534.95.702.39.156.85.234 1.41.234.44 0 .84-.042 1.2-.126.36-.084.64-.174.85-.27l.23 1.404c-.09.06-.23.12-.41.18-.18.048-.39.09-.61.126a6.64 6.64 0 01-.74.108c-.25.036-.5.054-.74.054zm7.76-9.774c.14 0 .3.012.48.036.19.012.38.036.56.072.18.024.34.054.49.09.15.024.27.048.34.072l-.29 1.458a4.608 4.608 0 00-.67-.162c-.3-.072-.69-.108-1.17-.108-.31 0-.62.036-.93.108-.3.06-.5.102-.6.126V43h-1.67v-8.964c.4-.144.89-.276 1.48-.396a8.963 8.963 0 011.98-.198zm2.96 4.896c0-.828.12-1.548.36-2.16.24-.624.56-1.14.95-1.548.4-.408.86-.714 1.37-.918a4.32 4.32 0 011.59-.306c1.26 0 2.22.396 2.89 1.188.68.78 1.01 1.974 1.01 3.582v.288c0 .108 0 .21-.02.306h-6.4c.07.972.35 1.71.84 2.214s1.26.756 2.31.756c.58 0 1.08-.048 1.47-.144.41-.108.72-.21.92-.306l.23 1.404c-.2.108-.56.222-1.08.342-.5.12-1.08.18-1.72.18-.82 0-1.53-.12-2.13-.36a4.094 4.094 0 01-1.46-1.026 4.286 4.286 0 01-.86-1.53c-.18-.6-.27-1.254-.27-1.962zm6.43-.918c.01-.756-.18-1.374-.58-1.854-.38-.492-.92-.738-1.6-.738-.39 0-.73.078-1.03.234a2.37 2.37 0 00-.74.576c-.2.24-.36.516-.48.828-.11.312-.18.63-.22.954h4.65zm7.32 4.374c.39 0 .74-.006 1.04-.018.31-.024.57-.06.77-.108v-2.79c-.12-.06-.31-.108-.59-.144a5.523 5.523 0 00-.97-.072c-.25 0-.52.018-.81.054a2.42 2.42 0 00-.78.234 1.55 1.55 0 00-.57.468c-.16.192-.24.45-.24.774 0 .6.2 1.02.58 1.26.38.228.91.342 1.57.342zm-.15-8.388c.67 0 1.24.09 1.69.27.47.168.84.414 1.12.738.29.312.49.69.61 1.134.12.432.18.912.18 1.44v5.85c-.14.024-.35.06-.61.108a22.59 22.59 0 01-1.93.198c-.37.036-.74.054-1.11.054-.53 0-1.02-.054-1.46-.162a3.35 3.35 0 01-1.15-.504c-.33-.24-.58-.552-.76-.936-.18-.384-.27-.846-.27-1.386 0-.516.1-.96.31-1.332.21-.372.5-.672.86-.9a3.96 3.96 0 011.26-.504c.48-.108.99-.162 1.51-.162.17 0 .35.012.53.036.18.012.34.036.5.072a7.62 7.62 0 01.68.126v-.468c0-.276-.03-.546-.09-.81a1.737 1.737 0 00-.32-.72 1.536 1.536 0 00-.65-.504c-.26-.132-.61-.198-1.04-.198-.55 0-1.04.042-1.46.126-.41.072-.71.15-.92.234l-.2-1.386c.22-.096.58-.186 1.08-.27a8.813 8.813 0 011.64-.144zm7.95.234h3.54v1.404h-3.54v4.32c0 .468.03.858.11 1.17.07.3.18.54.32.72.14.168.32.288.54.36.22.072.47.108.76.108.5 0 .9-.054 1.2-.162.31-.12.53-.204.65-.252l.32 1.386c-.16.084-.46.186-.88.306-.42.132-.9.198-1.44.198-.63 0-1.16-.078-1.58-.234a2.343 2.343 0 01-.99-.738c-.25-.324-.43-.72-.54-1.188-.1-.48-.15-1.032-.15-1.656V31.03l1.68-.288v2.898zm4.98 4.698c0-.828.12-1.548.36-2.16.24-.624.55-1.14.95-1.548.4-.408.85-.714 1.37-.918a4.23 4.23 0 011.58-.306c1.26 0 2.23.396 2.9 1.188.67.78 1.01 1.974 1.01 3.582v.288c0 .108-.01.21-.02.306h-6.41c.07.972.36 1.71.85 2.214s1.26.756 2.3.756c.59 0 1.08-.048 1.48-.144.41-.108.71-.21.92-.306l.23 1.404c-.2.108-.56.222-1.08.342-.5.12-1.08.18-1.73.18-.81 0-1.52-.12-2.12-.36-.59-.252-1.08-.594-1.46-1.026a4.286 4.286 0 01-.86-1.53c-.18-.6-.27-1.254-.27-1.962zm6.42-.918c.01-.756-.18-1.374-.57-1.854-.39-.492-.92-.738-1.61-.738-.38 0-.72.078-1.02.234-.29.144-.54.336-.74.576-.2.24-.37.516-.49.828-.1.312-.18.63-.21.954h4.64zm9.75 5.58a10.55 10.55 0 00-.49-.882c-.19-.324-.4-.654-.63-.99-.22-.348-.46-.69-.7-1.026a35.25 35.25 0 00-.7-.954c-.23.3-.46.624-.7.972-.24.336-.48.678-.7 1.026-.22.336-.42.666-.62.99-.19.324-.35.612-.48.864h-1.73c.42-.816.92-1.644 1.49-2.484.59-.852 1.17-1.662 1.75-2.43l-3.1-4.446h1.89l2.24 3.276 2.25-3.276h1.78l-3.03 4.338c.58.78 1.17 1.608 1.77 2.484.61.864 1.13 1.71 1.55 2.538h-1.84zm5.58-.972c0 .324-.11.606-.33.846-.21.24-.51.36-.88.36s-.67-.12-.88-.36c-.22-.24-.33-.522-.33-.846 0-.324.11-.606.33-.846.21-.24.51-.36.88-.36s.67.12.88.36c.22.24.33.522.33.846zm6.51 1.188c-.75 0-1.42-.12-1.99-.36a4.001 4.001 0 01-1.44-1.008 4.16 4.16 0 01-.87-1.53 6.53 6.53 0 01-.29-1.98c0-.72.11-1.38.31-1.98.22-.6.52-1.116.9-1.548.38-.444.85-.786 1.4-1.026a4.576 4.576 0 011.88-.378c.42 0 .84.036 1.26.108.42.072.82.186 1.2.342l-.38 1.422c-.25-.12-.54-.216-.88-.288a4.756 4.756 0 00-1.04-.108c-.94 0-1.66.294-2.16.882-.49.588-.74 1.446-.74 2.574 0 .504.05.966.16 1.386.12.42.3.78.54 1.08.25.3.57.534.96.702.38.156.85.234 1.4.234.44 0 .85-.042 1.21-.126.36-.084.64-.174.84-.27l.24 1.404c-.1.06-.24.12-.42.18a5.9 5.9 0 01-.61.126c-.23.048-.47.084-.74.108-.25.036-.5.054-.74.054zm12.34-4.896c0 .744-.11 1.416-.33 2.016-.21.6-.52 1.116-.92 1.548a3.95 3.95 0 01-1.38 1.008c-.54.228-1.13.342-1.77.342a4.49 4.49 0 01-1.76-.342 4.12 4.12 0 01-1.4-1.008 4.495 4.495 0 01-.9-1.548c-.22-.6-.33-1.272-.33-2.016 0-.732.11-1.398.33-1.998.21-.612.51-1.134.9-1.566.39-.432.86-.762 1.4-.99.54-.24 1.13-.36 1.76-.36.64 0 1.23.12 1.77.36.54.228 1 .558 1.38.99.4.432.71.954.92 1.566.22.6.33 1.266.33 1.998zm-1.75 0c0-1.056-.24-1.89-.72-2.502-.47-.624-1.11-.936-1.93-.936-.81 0-1.46.312-1.94.936-.47.612-.7 1.446-.7 2.502 0 1.056.23 1.896.7 2.52.48.612 1.13.918 1.94.918.82 0 1.46-.306 1.93-.918.48-.624.72-1.464.72-2.52zm4.1-4.41c.39-.096.89-.198 1.51-.306.64-.108 1.37-.162 2.2-.162.6 0 1.1.084 1.51.252.41.156.75.39 1.03.702a4.085 4.085 0 011.06-.558c.26-.108.56-.198.88-.27.33-.084.67-.126 1.05-.126.72 0 1.3.108 1.76.324.46.204.81.498 1.06.882.27.384.44.84.52 1.368.1.528.15 1.104.15 1.728V43h-1.68v-4.896c0-.552-.03-1.026-.09-1.422a2.5 2.5 0 00-.3-.99 1.335 1.335 0 00-.61-.576c-.26-.132-.59-.198-.99-.198-.57 0-1.04.078-1.41.234-.36.144-.6.276-.74.396.1.312.17.654.22 1.026.05.372.07.762.07 1.17V43h-1.67v-4.896c0-.552-.03-1.026-.09-1.422-.06-.396-.17-.726-.33-.99a1.246 1.246 0 00-.61-.576c-.25-.132-.57-.198-.97-.198a8.586 8.586 0 00-1.1.072 5.25 5.25 0 00-.75.108V43h-1.68v-9.09z" fill="#1E212C"/><a><path d="M0 3.159h157.67v20.682H0z"/></a></g></g></g><g clip-path="url(#clip5_1424_79)"><path d="M198.704 32a22.152 22.152 0 00-.4-1.184l-.416-1.216h-4.32c-.139.405-.283.81-.432 1.216-.139.405-.267.8-.384 1.184h-2.592c.416-1.195.811-2.299 1.184-3.312a141.94 141.94 0 011.088-2.864c.363-.896.715-1.744 1.056-2.544.352-.81.715-1.6 1.088-2.368h2.384c.363.768.72 1.557 1.072 2.368.352.8.704 1.648 1.056 2.544.363.896.731 1.85 1.104 2.864.373 1.013.768 2.117 1.184 3.312h-2.672zm-2.992-8.576c-.053.16-.133.379-.24.656l-.368.96c-.139.363-.293.763-.464 1.2-.16.437-.325.896-.496 1.376h3.152c-.171-.48-.336-.939-.496-1.376a33.53 33.53 0 00-.464-1.2l-.368-.96a62.794 62.794 0 00-.256-.656zm12.331 4.304c0-1.536-.565-2.304-1.696-2.304-.245 0-.49.032-.736.096a2.097 2.097 0 00-.576.24v4.336c.118.021.267.043.448.064.182.01.379.016.592.016.651 0 1.142-.224 1.472-.672.331-.448.496-1.04.496-1.776zm2.432.064c0 .672-.101 1.28-.304 1.824a3.754 3.754 0 01-.848 1.392 3.845 3.845 0 01-1.376.896c-.544.203-1.162.304-1.856.304-.288 0-.592-.016-.912-.048a13.7 13.7 0 01-.928-.096c-.298-.043-.586-.09-.864-.144a12.086 12.086 0 01-.736-.192v-11.76l2.384-.384v4.192a4.277 4.277 0 011.76-.368c.598 0 1.126.107 1.584.32.459.203.843.496 1.152.88.31.384.544.848.704 1.392.16.533.24 1.13.24 1.792zm9.705-.016c0 .661-.096 1.27-.288 1.824a4.05 4.05 0 01-.832 1.408c-.363.384-.8.683-1.312.896-.502.213-1.067.32-1.696.32a4.367 4.367 0 01-1.696-.32 3.802 3.802 0 01-1.296-.896 4.228 4.228 0 01-.848-1.408 5.27 5.27 0 01-.304-1.824c0-.661.101-1.264.304-1.808a4.26 4.26 0 01.864-1.392c.373-.384.81-.683 1.312-.896a4.281 4.281 0 011.664-.32 4.21 4.21 0 011.664.32c.512.213.949.512 1.312.896.362.384.645.848.848 1.392a5.16 5.16 0 01.304 1.808zm-2.432 0c0-.736-.15-1.312-.448-1.728-.288-.427-.704-.64-1.248-.64s-.966.213-1.264.64c-.299.416-.448.992-.448 1.728s.149 1.323.448 1.76c.298.427.72.64 1.264.64s.96-.213 1.248-.64c.298-.437.448-1.024.448-1.76zm11.462 3.936c-.405.117-.928.224-1.568.32-.64.107-1.312.16-2.016.16-.714 0-1.312-.096-1.792-.288-.469-.192-.842-.459-1.12-.8a3.239 3.239 0 01-.592-1.248 6.687 6.687 0 01-.176-1.584v-4.688h2.384v4.4c0 .768.102 1.323.304 1.664.203.341.582.512 1.136.512.171 0 .352-.005.544-.016.192-.021.363-.043.512-.064v-6.496h2.384v8.128zm2.158-10.224l2.384-.384v2.48h2.864v1.984h-2.864v2.96c0 .501.085.901.256 1.2.181.299.539.448 1.072.448.256 0 .517-.021.784-.064.277-.053.528-.123.752-.208l.336 1.856a6.783 6.783 0 01-.96.304 5.612 5.612 0 01-1.296.128c-.651 0-1.189-.085-1.616-.256a2.636 2.636 0 01-1.024-.736 2.89 2.89 0 01-.544-1.152 7.115 7.115 0 01-.144-1.488v-7.072zm15.529 10.736c-.778 0-1.45-.107-2.016-.32a3.98 3.98 0 01-1.408-.912 3.892 3.892 0 01-.816-1.392 5.984 5.984 0 01-.256-1.792v-6.896h2.496V27.6c0 .448.048.832.144 1.152.107.31.246.565.416.768a1.6 1.6 0 00.64.416c.256.085.534.128.832.128.608 0 1.099-.187 1.472-.56.384-.373.576-1.008.576-1.904v-6.688h2.496v6.896c0 .65-.09 1.248-.272 1.792a3.727 3.727 0 01-.832 1.408c-.373.384-.848.683-1.424.896-.576.213-1.258.32-2.048.32zm9.233-1.936c.437 0 .746-.043.928-.128.181-.085.272-.25.272-.496 0-.192-.118-.357-.352-.496-.235-.15-.592-.315-1.072-.496a11.743 11.743 0 01-1.024-.432 3.137 3.137 0 01-.768-.528 2.238 2.238 0 01-.496-.752c-.118-.288-.176-.635-.176-1.04 0-.79.293-1.413.88-1.872.586-.459 1.392-.688 2.416-.688.512 0 1.002.048 1.472.144.469.085.842.181 1.12.288l-.416 1.856a8.65 8.65 0 00-.912-.256 4.806 4.806 0 00-1.088-.112c-.747 0-1.12.208-1.12.624 0 .096.016.181.048.256a.6.6 0 00.192.224 4.7 4.7 0 00.384.224c.17.075.384.16.64.256.522.192.954.384 1.296.576.341.181.608.384.8.608.202.213.341.453.416.72.085.267.128.576.128.928 0 .832-.315 1.461-.944 1.888-.619.427-1.499.64-2.64.64-.747 0-1.371-.064-1.872-.192-.491-.128-.832-.235-1.024-.32l.4-1.936c.405.16.821.288 1.248.384a6.43 6.43 0 001.264.128z" fill="#424551"/><path d="M305.304 30.096c.352 0 .64-.027.864-.08.235-.064.421-.144.56-.24a.847.847 0 00.288-.368 1.29 1.29 0 00.08-.464c0-.363-.171-.661-.512-.896-.341-.245-.928-.507-1.76-.784a15.363 15.363 0 01-1.088-.432 4.35 4.35 0 01-.976-.624 3.113 3.113 0 01-.704-.912c-.181-.363-.272-.8-.272-1.312s.096-.97.288-1.376c.192-.416.464-.768.816-1.056a3.634 3.634 0 011.28-.656 5.567 5.567 0 011.696-.24c.747 0 1.392.08 1.936.24.544.16.992.336 1.344.528l-.72 1.968a6.2 6.2 0 00-1.04-.416c-.373-.128-.827-.192-1.36-.192-.597 0-1.029.085-1.296.256-.256.16-.384.41-.384.752 0 .203.048.373.144.512.096.139.229.267.4.384.181.107.384.208.608.304.235.085.491.176.768.272.576.213 1.077.427 1.504.64.427.203.779.443 1.056.72.288.277.501.603.64.976s.208.827.208 1.36c0 1.035-.363 1.84-1.088 2.416-.725.565-1.819.848-3.28.848-.491 0-.933-.032-1.328-.096a8.027 8.027 0 01-1.056-.208 6.599 6.599 0 01-.784-.272 6.438 6.438 0 01-.544-.272l.704-1.984c.331.181.736.347 1.216.496.491.139 1.088.208 1.792.208zm5.729-2.24c0-.747.112-1.397.335-1.952.235-.565.539-1.035.913-1.408.373-.373.8-.656 1.28-.848.49-.192.992-.288 1.504-.288 1.194 0 2.138.368 2.832 1.104.693.725 1.04 1.797 1.04 3.216 0 .139-.006.293-.016.464l-.032.432h-5.408c.053.49.282.88.688 1.168.405.288.949.432 1.632.432.437 0 .864-.037 1.28-.112a5.158 5.158 0 001.04-.304l.32 1.936a3.305 3.305 0 01-.512.192 5.647 5.647 0 01-.72.16 8.604 8.604 0 01-1.728.176c-.758 0-1.419-.112-1.984-.336a3.993 3.993 0 01-1.392-.912 3.863 3.863 0 01-.816-1.392 5.63 5.63 0 01-.256-1.728zm5.6-.912a2.248 2.248 0 00-.112-.592 1.328 1.328 0 00-.272-.512 1.348 1.348 0 00-.464-.368c-.182-.096-.411-.144-.688-.144-.267 0-.496.048-.688.144a1.337 1.337 0 00-.48.352c-.128.15-.23.325-.304.528-.064.192-.112.39-.144.592h3.152zm9.215-1.248a12.562 12.562 0 00-.752-.16 4.27 4.27 0 00-.928-.096c-.149 0-.33.016-.544.048a2.715 2.715 0 00-.464.08V32h-2.384v-7.968c.427-.15.928-.288 1.504-.416a8.499 8.499 0 011.952-.208c.128 0 .283.01.464.032.182.01.363.032.544.064.182.021.363.053.544.096.182.032.336.075.464.128l-.4 1.968zM330.314 32a43.856 43.856 0 01-1.664-3.744 61.668 61.668 0 01-1.584-4.672h2.528c.107.416.23.87.368 1.36.15.48.299.97.448 1.472.16.49.315.97.464 1.44.16.47.315.896.464 1.28.139-.384.288-.81.448-1.28.16-.47.315-.95.464-1.44.16-.501.31-.992.448-1.472.15-.49.278-.944.384-1.36h2.464a56.246 56.246 0 01-1.6 4.672A40.607 40.607 0 01332.298 32h-1.984zm8.893 0h-2.384v-8.416h2.384V32zm.224-10.848c0 .437-.144.784-.432 1.04a1.447 1.447 0 01-.992.368c-.384 0-.72-.123-1.008-.368-.277-.256-.416-.603-.416-1.04 0-.437.139-.779.416-1.024a1.47 1.47 0 011.008-.384c.384 0 .715.128.992.384.288.245.432.587.432 1.024zm1.617 6.64c0-.608.096-1.179.288-1.712a4.12 4.12 0 012.224-2.368c.533-.235 1.141-.352 1.824-.352.448 0 .859.043 1.232.128.373.075.736.187 1.088.336l-.496 1.904a5.996 5.996 0 00-.736-.224 3.847 3.847 0 00-.896-.096c-.704 0-1.232.219-1.584.656-.341.437-.512 1.013-.512 1.728 0 .757.16 1.344.48 1.76.331.416.901.624 1.712.624.288 0 .597-.027.928-.08.331-.053.635-.139.912-.256l.336 1.952a5.585 5.585 0 01-1.04.304 6.865 6.865 0 01-1.376.128c-.768 0-1.429-.112-1.984-.336a3.9 3.9 0 01-1.376-.944 3.81 3.81 0 01-.784-1.392 6.212 6.212 0 01-.24-1.76zm7.594.064c0-.747.112-1.397.336-1.952.235-.565.539-1.035.912-1.408s.8-.656 1.28-.848a4.096 4.096 0 011.504-.288c1.195 0 2.139.368 2.832 1.104.693.725 1.04 1.797 1.04 3.216 0 .139-.005.293-.016.464-.011.16-.021.304-.032.432h-5.408c.053.49.283.88.688 1.168.405.288.949.432 1.632.432.437 0 .864-.037 1.28-.112a5.139 5.139 0 001.04-.304l.32 1.936a3.305 3.305 0 01-.512.192 5.571 5.571 0 01-.72.16 8.556 8.556 0 01-1.728.176c-.757 0-1.419-.112-1.984-.336a3.993 3.993 0 01-1.392-.912 3.863 3.863 0 01-.816-1.392 5.63 5.63 0 01-.256-1.728zm5.6-.912a2.248 2.248 0 00-.112-.592 1.315 1.315 0 00-.272-.512 1.338 1.338 0 00-.464-.368c-.181-.096-.411-.144-.688-.144-.267 0-.496.048-.688.144a1.337 1.337 0 00-.48.352c-.128.15-.229.325-.304.528-.064.192-.112.39-.144.592h3.152zm6.56 3.344c.437 0 .746-.043.928-.128.181-.085.272-.25.272-.496 0-.192-.118-.357-.352-.496-.235-.15-.592-.315-1.072-.496a11.743 11.743 0 01-1.024-.432 3.137 3.137 0 01-.768-.528 2.238 2.238 0 01-.496-.752c-.118-.288-.176-.635-.176-1.04 0-.79.293-1.413.88-1.872.586-.459 1.392-.688 2.416-.688.512 0 1.002.048 1.472.144.469.085.842.181 1.12.288l-.416 1.856a8.65 8.65 0 00-.912-.256 4.806 4.806 0 00-1.088-.112c-.747 0-1.12.208-1.12.624 0 .096.016.181.048.256a.6.6 0 00.192.224 4.7 4.7 0 00.384.224c.17.075.384.16.64.256.522.192.954.384 1.296.576.341.181.608.384.8.608.202.213.341.453.416.72.085.267.128.576.128.928 0 .832-.315 1.461-.944 1.888-.619.427-1.499.64-2.64.64-.747 0-1.371-.064-1.872-.192-.491-.128-.832-.235-1.024-.32l.4-1.936c.405.16.821.288 1.248.384a6.43 6.43 0 001.264.128z" fill="#FF5A30"/><path d="M414.72 22.096c.128.437.267.933.416 1.488l.496 1.696.544 1.76c.181.587.357 1.13.528 1.632.139-.544.277-1.136.416-1.776.149-.64.288-1.301.416-1.984s.251-1.36.368-2.032c.128-.683.245-1.339.352-1.968h2.592a108.584 108.584 0 01-1.296 5.648 79.218 79.218 0 01-1.568 5.44h-2.288a75.829 75.829 0 01-1.088-3.216 398.96 398.96 0 01-1.04-3.392l-1.024 3.392A63.082 63.082 0 01411.472 32h-2.288a85.778 85.778 0 01-1.584-5.44c-.48-1.91-.907-3.792-1.28-5.648h2.704a118.168 118.168 0 00.752 4c.139.683.277 1.344.416 1.984.149.64.299 1.232.448 1.776.192-.523.379-1.077.56-1.664.181-.587.357-1.173.528-1.76a52.78 52.78 0 00.464-1.696l.4-1.456h2.128zm14.913 5.68c0 .661-.096 1.27-.288 1.824a4.05 4.05 0 01-.832 1.408c-.363.384-.8.683-1.312.896-.502.213-1.067.32-1.696.32a4.367 4.367 0 01-1.696-.32 3.802 3.802 0 01-1.296-.896 4.228 4.228 0 01-.848-1.408 5.27 5.27 0 01-.304-1.824c0-.661.101-1.264.304-1.808a4.26 4.26 0 01.864-1.392c.373-.384.81-.683 1.312-.896a4.281 4.281 0 011.664-.32 4.21 4.21 0 011.664.32c.512.213.949.512 1.312.896.362.384.645.848.848 1.392a5.16 5.16 0 01.304 1.808zm-2.432 0c0-.736-.15-1.312-.448-1.728-.288-.427-.704-.64-1.248-.64s-.966.213-1.264.64c-.299.416-.448.992-.448 1.728s.149 1.323.448 1.76c.298.427.72.64 1.264.64s.96-.213 1.248-.64c.298-.437.448-1.024.448-1.76zm9.35-2.08a12.562 12.562 0 00-.752-.16 4.27 4.27 0 00-.928-.096c-.149 0-.33.016-.544.048a2.715 2.715 0 00-.464.08V32h-2.384v-7.968c.427-.15.928-.288 1.504-.416a8.499 8.499 0 011.952-.208c.128 0 .283.01.464.032.182.01.363.032.544.064.182.021.363.053.544.096.182.032.336.075.464.128l-.4 1.968zm4.062.928c.235-.256.475-.523.72-.8.256-.277.502-.55.736-.816.235-.277.454-.539.656-.784.214-.245.395-.459.544-.64h2.832c-.565.65-1.12 1.275-1.664 1.872a45.127 45.127 0 01-1.76 1.824c.32.288.651.635.992 1.04.342.395.672.805.992 1.232A18.079 18.079 0 01446.213 32h-2.736c-.17-.277-.368-.581-.592-.912a14.945 14.945 0 00-.688-1.008 11.423 11.423 0 00-.784-.976 6.04 6.04 0 00-.8-.784V32h-2.384V19.968l2.384-.384v7.04zM495.72 32a55.931 55.931 0 00-2.32-3.76 38.161 38.161 0 00-2.656-3.504V32h-2.464V20.912h2.032c.352.352.741.784 1.168 1.296.427.512.859 1.061 1.296 1.648.448.576.891 1.179 1.328 1.808a80.87 80.87 0 011.232 1.792v-6.544h2.48V32h-2.096zm4.094-4.144c0-.747.112-1.397.336-1.952.234-.565.538-1.035.912-1.408.373-.373.8-.656 1.28-.848.49-.192.992-.288 1.504-.288 1.194 0 2.138.368 2.832 1.104.693.725 1.04 1.797 1.04 3.216 0 .139-.006.293-.016.464l-.032.432h-5.408c.053.49.282.88.688 1.168.405.288.949.432 1.632.432.437 0 .864-.037 1.28-.112a5.158 5.158 0 001.04-.304l.32 1.936a3.305 3.305 0 01-.512.192 5.647 5.647 0 01-.72.16 8.604 8.604 0 01-1.728.176c-.758 0-1.419-.112-1.984-.336a3.993 3.993 0 01-1.392-.912 3.863 3.863 0 01-.816-1.392 5.63 5.63 0 01-.256-1.728zm5.6-.912a2.248 2.248 0 00-.112-.592 1.328 1.328 0 00-.272-.512 1.348 1.348 0 00-.464-.368c-.182-.096-.411-.144-.688-.144-.267 0-.496.048-.688.144a1.337 1.337 0 00-.48.352c-.128.15-.23.325-.304.528-.064.192-.112.39-.144.592h3.152zm9.264.224c-.214.81-.443 1.616-.688 2.416-.235.8-.486 1.605-.752 2.416h-1.856c-.192-.448-.4-.981-.624-1.6a99.086 99.086 0 01-.704-2.016c-.235-.736-.48-1.51-.736-2.32a153.23 153.23 0 01-.72-2.48h2.512c.085.384.176.805.272 1.264.106.448.213.912.32 1.392l.352 1.456c.128.48.256.944.384 1.392.138-.47.272-.95.4-1.44.138-.49.266-.97.384-1.44.128-.48.245-.939.352-1.376.117-.448.218-.864.304-1.248h1.728c.085.384.181.8.288 1.248l.336 1.376c.117.47.24.95.368 1.44s.261.97.4 1.44c.128-.448.256-.912.384-1.392.128-.49.245-.976.352-1.456.117-.48.224-.944.32-1.392.106-.459.202-.88.288-1.264h2.48a95.9 95.9 0 01-.736 2.48c-.246.81-.491 1.584-.736 2.32-.235.725-.47 1.397-.704 2.016a30.359 30.359 0 01-.624 1.6h-1.856c-.267-.81-.528-1.616-.784-2.416-.256-.8-.491-1.605-.704-2.416zm9.842 3.12c.438 0 .747-.043.928-.128.182-.085.272-.25.272-.496 0-.192-.117-.357-.352-.496-.234-.15-.592-.315-1.072-.496a12.01 12.01 0 01-1.024-.432 3.175 3.175 0 01-.768-.528 2.269 2.269 0 01-.496-.752c-.117-.288-.176-.635-.176-1.04 0-.79.294-1.413.88-1.872.587-.459 1.392-.688 2.416-.688.512 0 1.003.048 1.472.144.47.085.843.181 1.12.288l-.416 1.856a8.516 8.516 0 00-.912-.256 4.8 4.8 0 00-1.088-.112c-.746 0-1.12.208-1.12.624 0 .096.016.181.048.256a.6.6 0 00.192.224 4.7 4.7 0 00.384.224c.171.075.384.16.64.256.523.192.955.384 1.296.576.342.181.608.384.8.608.203.213.342.453.416.72.086.267.128.576.128.928 0 .832-.314 1.461-.944 1.888-.618.427-1.498.64-2.64.64-.746 0-1.37-.064-1.872-.192-.49-.128-.832-.235-1.024-.32l.4-1.936c.406.16.822.288 1.248.384.427.085.848.128 1.264.128zm50.816 1.936c-1.803 0-3.179-.501-4.128-1.504-.939-1.003-1.408-2.427-1.408-4.272 0-.917.144-1.733.432-2.448.288-.725.683-1.333 1.184-1.824a4.899 4.899 0 011.792-1.136 6.461 6.461 0 012.256-.384c.469 0 .896.037 1.28.112.384.064.72.144 1.008.24.288.085.528.176.72.272.192.096.331.17.416.224l-.72 2.016a5.98 5.98 0 00-1.2-.464 5.6 5.6 0 00-1.536-.192 3.48 3.48 0 00-1.136.192 2.585 2.585 0 00-.976.624c-.277.277-.501.64-.672 1.088-.171.448-.256.992-.256 1.632 0 .512.053.992.16 1.44.117.437.299.816.544 1.136.256.32.587.576.992.768.405.181.896.272 1.472.272a6.7 6.7 0 00.976-.064c.288-.043.544-.09.768-.144.224-.064.421-.133.592-.208.171-.075.325-.144.464-.208l.688 2c-.352.213-.848.405-1.488.576-.64.17-1.381.256-2.224.256zm12.844-4.448c0 .661-.096 1.27-.288 1.824a4.05 4.05 0 01-.832 1.408c-.363.384-.8.683-1.312.896-.502.213-1.067.32-1.696.32a4.367 4.367 0 01-1.696-.32 3.802 3.802 0 01-1.296-.896 4.228 4.228 0 01-.848-1.408 5.27 5.27 0 01-.304-1.824c0-.661.101-1.264.304-1.808a4.26 4.26 0 01.864-1.392c.373-.384.81-.683 1.312-.896a4.281 4.281 0 011.664-.32 4.21 4.21 0 011.664.32c.512.213.949.512 1.312.896.362.384.645.848.848 1.392a5.16 5.16 0 01.304 1.808zm-2.432 0c0-.736-.15-1.312-.448-1.728-.288-.427-.704-.64-1.248-.64s-.966.213-1.264.64c-.299.416-.448.992-.448 1.728s.149 1.323.448 1.76c.298.427.72.64 1.264.64s.96-.213 1.248-.64c.298-.437.448-1.024.448-1.76zm4.278-3.904a12.49 12.49 0 011.568-.32 12.25 12.25 0 012.016-.16c.715 0 1.307.096 1.776.288.48.181.859.443 1.136.784.278.341.475.747.592 1.216.118.47.176.992.176 1.568V32h-2.384v-4.464c0-.768-.101-1.312-.304-1.632-.202-.32-.581-.48-1.136-.48-.17 0-.352.01-.544.032-.192.01-.362.027-.512.048V32h-2.384v-8.128zm9.342-2.384l2.384-.384v2.48h2.864v1.984h-2.864v2.96c0 .501.085.901.256 1.2.181.299.539.448 1.072.448.256 0 .517-.021.784-.064.277-.053.528-.123.752-.208l.336 1.856a6.783 6.783 0 01-.96.304 5.612 5.612 0 01-1.296.128c-.651 0-1.189-.085-1.616-.256a2.636 2.636 0 01-1.024-.736 2.89 2.89 0 01-.544-1.152 7.115 7.115 0 01-.144-1.488v-7.072zm10.093 8.848c.235 0 .459-.005.672-.016a4.7 4.7 0 00.512-.048v-1.808a4.401 4.401 0 00-.432-.064 4.82 4.82 0 00-.528-.032c-.224 0-.437.016-.64.048-.192.021-.363.07-.512.144a.893.893 0 00-.352.304.85.85 0 00-.128.48c0 .373.123.635.368.784.256.139.603.208 1.04.208zm-.192-6.976c.704 0 1.291.08 1.76.24.469.16.843.39 1.12.688.288.299.491.661.608 1.088.117.427.176.901.176 1.424v4.96c-.341.075-.816.16-1.424.256-.608.107-1.344.16-2.208.16-.544 0-1.04-.048-1.488-.144a3.308 3.308 0 01-1.136-.464 2.223 2.223 0 01-.736-.864c-.171-.352-.256-.784-.256-1.296 0-.49.096-.907.288-1.248a2.35 2.35 0 01.8-.816 3.447 3.447 0 011.136-.432 6.032 6.032 0 011.328-.144c.309 0 .581.016.816.048.245.021.443.053.592.096v-.224c0-.405-.123-.73-.368-.976-.245-.245-.672-.368-1.28-.368a7.49 7.49 0 00-1.2.096 4.82 4.82 0 00-1.024.24l-.304-1.92c.139-.043.309-.085.512-.128a6.16 6.16 0 01.688-.128c.245-.043.501-.075.768-.096.277-.032.555-.048.832-.048zm5.42 4.432c0-.608.096-1.179.288-1.712a4.09 4.09 0 01.864-1.408 4.02 4.02 0 011.36-.96c.533-.235 1.141-.352 1.824-.352.448 0 .858.043 1.232.128.373.075.736.187 1.088.336l-.496 1.904a6.05 6.05 0 00-.736-.224 3.853 3.853 0 00-.896-.096c-.704 0-1.232.219-1.584.656-.342.437-.512 1.013-.512 1.728 0 .757.16 1.344.48 1.76.33.416.901.624 1.712.624.288 0 .597-.027.928-.08.33-.053.634-.139.912-.256l.336 1.952a5.608 5.608 0 01-1.04.304 6.865 6.865 0 01-1.376.128c-.768 0-1.43-.112-1.984-.336a3.891 3.891 0 01-1.376-.944 3.796 3.796 0 01-.784-1.392 6.212 6.212 0 01-.24-1.76zm8.32-6.304l2.384-.384v2.48h2.864v1.984h-2.864v2.96c0 .501.085.901.256 1.2.181.299.538.448 1.072.448.256 0 .517-.021.784-.064.277-.053.528-.123.752-.208l.336 1.856a6.783 6.783 0 01-.96.304 5.612 5.612 0 01-1.296.128c-.651 0-1.19-.085-1.616-.256a2.636 2.636 0 01-1.024-.736 2.876 2.876 0 01-.544-1.152 7.115 7.115 0 01-.144-1.488v-7.072zm9.605 8.8c.437 0 .747-.043.928-.128.181-.085.272-.25.272-.496 0-.192-.117-.357-.352-.496-.235-.15-.592-.315-1.072-.496a11.875 11.875 0 01-1.024-.432 3.137 3.137 0 01-.768-.528 2.253 2.253 0 01-.496-.752c-.117-.288-.176-.635-.176-1.04 0-.79.293-1.413.88-1.872.587-.459 1.392-.688 2.416-.688.512 0 1.003.048 1.472.144.469.085.843.181 1.12.288l-.416 1.856a8.516 8.516 0 00-.912-.256 4.806 4.806 0 00-1.088-.112c-.747 0-1.12.208-1.12.624 0 .096.016.181.048.256a.6.6 0 00.192.224 4.7 4.7 0 00.384.224c.171.075.384.16.64.256.523.192.955.384 1.296.576.341.181.608.384.8.608.203.213.341.453.416.72.085.267.128.576.128.928 0 .832-.315 1.461-.944 1.888-.619.427-1.499.64-2.64.64-.747 0-1.371-.064-1.872-.192-.491-.128-.832-.235-1.024-.32l.4-1.936c.405.16.821.288 1.248.384.427.085.848.128 1.264.128z" fill="#424551"/></g><g clip-path="url(#clip6_1424_79)"><path d="M0 26.1c0-6.1 3.3-9.8 8.7-9.8 4.1 0 7.4 2.5 8 6.2.1.4-.2.7-.6.7h-2.6c-.3 0-.5-.2-.6-.5-.5-1.9-2.1-3.1-4.2-3.1-2.9 0-4.7 2.5-4.7 6.5s1.8 6.5 4.8 6.5c2.1 0 3.6-1.1 4.2-2.9.1-.3.3-.5.6-.5h2.6c.4 0 .7.4.6.7-.6 3.6-3.8 6-8 6-5.5 0-8.8-3.8-8.8-9.8zm24.3 9.3h-2.9c-.3 0-.5-.2-.5-.5V17.6c0-.4.4-.8.8-.8h7c4.1 0 6.6 2.3 6.6 5.9 0 2.1-1 4-2.7 5-.4.2-.5.7-.3 1l3.1 5.9c.2.3-.1.7-.4.7h-3.3c-.2 0-.4-.1-.5-.3l-2.9-6c-.1-.3-.4-.4-.7-.4h-2.3c-.3 0-.5.2-.5.5V35c.1.2-.2.4-.5.4zm.6-10.2c0 .3.2.5.5.5h3c2 0 3.1-1.1 3.1-2.9 0-1.8-1.2-2.9-3.1-2.9h-2.9c-.3 0-.5.2-.5.5v4.8h-.1zm26.6 10.2h-11c-.4 0-.7-.3-.7-.7V17.5c0-.4.3-.7.7-.7h11c.4 0 .7.3.7.7v1.9c0 .4-.3.7-.7.7h-7.3c-.3 0-.5.2-.5.5V24c0 .3.2.5.5.5H51c.4 0 .7.3.7.7v1.7c0 .4-.3.7-.7.7h-6.8c-.3 0-.5.2-.5.5v3.8c0 .3.2.5.5.5h7.3c.4 0 .7.3.7.7V35c0 .1-.3.4-.7.4zM67 30.9h-5.7c-.3 0-.5.2-.6.4L59.6 35c-.1.3-.3.4-.6.4h-2.6c-.4 0-.7-.4-.6-.8l6-17.4c.1-.2.3-.4.6-.4h3.7c.3 0 .5.2.6.4l6 17.4c.1.4-.2.8-.6.8h-2.9c-.3 0-.5-.2-.6-.4l-1.1-3.7c0-.2-.3-.4-.5-.4zM62.1 28h4.1c.2 0 .3-.2.3-.4l-2.2-7h-.2l-2.2 7c-.1.2 0 .4.2.4zM79 34.7V20.5c0-.3-.2-.5-.5-.5h-4.4c-.4 0-.8-.3-.8-.8v-1.7c0-.4.3-.8.8-.8h13.6c.4 0 .8.3.8.8v1.7c0 .4-.3.8-.8.8h-4.4c-.3 0-.5.2-.5.5v14.3c0 .4-.3.7-.7.7h-2.5c-.3-.1-.6-.4-.6-.8zm24.8.7h-11c-.4 0-.7-.3-.7-.7V17.5c0-.4.3-.7.7-.7h11c.4 0 .7.3.7.7v1.9c0 .4-.3.7-.7.7h-7.3c-.3 0-.5.2-.5.5V24c0 .3.2.5.5.5h6.8c.4 0 .7.3.7.7v1.7c0 .4-.3.7-.7.7h-6.8c-.3 0-.5.2-.5.5v3.8c0 .3.2.5.5.5h7.3c.4 0 .7.3.7.7V35c0 .1-.3.4-.7.4z" fill="#1E212C"/><path d="M117.7 24.7l-6.2-8.1c-.4-.4-.9-.6-1.4-.6-.5 0-1 .2-1.4.6-.7.8-.7 2 0 2.8l4.9 6.6-4.9 6.6c-.7.8-.7 2 0 2.8.4.4.9.6 1.4.6.5 0 1-.2 1.4-.6l6.2-8.1c.7-.6.7-1.8 0-2.6zm2.643 0l6.2-8.1c.4-.4.9-.6 1.4-.6.5 0 1 .2 1.4.6.7.8.7 2 0 2.8l-4.9 6.6 4.9 6.6c.7.8.7 2 0 2.8-.4.4-.9.6-1.4.6-.5 0-1-.2-1.4-.6l-6.2-8.1c-.7-.6-.7-1.8 0-2.6z" fill="#FF5A30"/></g><defs><clipPath id="clip0_1424_79"><path fill="#fff" transform="translate(809 2)" d="M0 0h421v48H0z"/></clipPath><clipPath id="clip1_1424_79"><path fill="#fff" transform="translate(809 2)" d="M0 0h175v48H0z"/></clipPath><clipPath id="clip2_1424_79"><path fill="#fff" transform="translate(861 2)" d="M0 0h123v48H0z"/></clipPath><clipPath id="clip3_1424_79"><path fill="#fff" transform="translate(1020 2)" d="M0 0h210v48H0z"/></clipPath><clipPath id="clip4_1424_79"><path fill="#fff" transform="translate(1072 2)" d="M0 0h158v48H0z"/></clipPath><clipPath id="clip5_1424_79"><path fill="#fff" transform="translate(190 13)" d="M0 0h447v26H0z"/></clipPath><clipPath id="clip6_1424_79"><path fill="#fff" transform="translate(0 15)" d="M0 0h130v22H0z"/></clipPath></defs></svg>